<svg width="44" height="44" viewBox="0 0 44 44" fill="none" xmlns="http://www.w3.org/2000/svg">
<path d="M42.1666 18.2233C42.1475 18.0549 42.1107 17.889 42.0566 17.7283V17.5633C41.9685 17.3748 41.8509 17.2016 41.7083 17.05L30.7083 6.05C30.5568 5.9074 30.3835 5.78982 30.195 5.70167H30.03C29.8437 5.59486 29.6381 5.5263 29.425 5.5H14.6666C13.208 5.5 11.809 6.07946 10.7776 7.11091C9.74611 8.14236 9.16665 9.54131 9.16665 11V12.8333H7.33331C5.87462 12.8333 4.47568 13.4128 3.44423 14.4442C2.41278 15.4757 1.83331 16.8746 1.83331 18.3333V33C1.83331 34.4587 2.41278 35.8576 3.44423 36.8891C4.47568 37.9205 5.87462 38.5 7.33331 38.5H29.3333C30.792 38.5 32.1909 37.9205 33.2224 36.8891C34.2538 35.8576 34.8333 34.4587 34.8333 33V31.1667H36.6666C38.1253 31.1667 39.5243 30.5872 40.5557 29.5558C41.5872 28.5243 42.1666 27.1254 42.1666 25.6667V18.3333V18.2233ZM31.1666 11.7517L35.915 16.5H33C32.5137 16.5 32.0474 16.3068 31.7036 15.963C31.3598 15.6192 31.1666 15.1529 31.1666 14.6667V11.7517ZM31.1666 33C31.1666 33.4862 30.9735 33.9525 30.6297 34.2964C30.2859 34.6402 29.8195 34.8333 29.3333 34.8333H7.33331C6.84708 34.8333 6.38077 34.6402 6.03695 34.2964C5.69313 33.9525 5.49998 33.4862 5.49998 33V18.3333C5.49998 17.8471 5.69313 17.3808 6.03695 17.037C6.38077 16.6932 6.84708 16.5 7.33331 16.5H9.16665V25.6667C9.16665 27.1254 9.74611 28.5243 10.7776 29.5558C11.809 30.5872 13.208 31.1667 14.6666 31.1667H31.1666V33ZM38.5 25.6667C38.5 26.1529 38.3068 26.6192 37.963 26.963C37.6192 27.3068 37.1529 27.5 36.6666 27.5H14.6666C14.1804 27.5 13.7141 27.3068 13.3703 26.963C13.0265 26.6192 12.8333 26.1529 12.8333 25.6667V11C12.8333 10.5138 13.0265 10.0475 13.3703 9.70364C13.7141 9.35982 14.1804 9.16667 14.6666 9.16667H27.5V14.6667C27.5 16.1254 28.0794 17.5243 29.1109 18.5558C30.1423 19.5872 31.5413 20.1667 33 20.1667H38.5V25.6667Z" fill="#B7B7B7"/>
</svg>
