<svg width="29" height="29" viewBox="0 0 29 29" fill="none" xmlns="http://www.w3.org/2000/svg">
<path d="M14.5 12.0833C15.0554 12.0833 15.6053 11.9739 16.1184 11.7614C16.6315 11.5489 17.0978 11.2374 17.4905 10.8446C17.8832 10.4519 18.1947 9.98571 18.4072 9.4726C18.6198 8.95949 18.7292 8.40955 18.7292 7.85417C18.7292 7.29878 18.6198 6.74884 18.4072 6.23573C18.1947 5.72263 17.8832 5.25641 17.4905 4.86369C17.0978 4.47098 16.6315 4.15946 16.1184 3.94693C15.6053 3.73439 15.0554 3.625 14.5 3.625C13.3784 3.625 12.3027 4.07057 11.5095 4.86369C10.7164 5.65682 10.2708 6.73252 10.2708 7.85417C10.2708 8.97581 10.7164 10.0515 11.5095 10.8446C12.3027 11.6378 13.3784 12.0833 14.5 12.0833ZM3.625 24.65V25.375H25.375V24.65C25.375 21.9433 25.375 20.59 24.8482 19.5557C24.3848 18.6463 23.6454 17.9069 22.736 17.4435C21.7017 16.9167 20.3483 16.9167 17.6417 16.9167H11.3583C8.65167 16.9167 7.29833 16.9167 6.264 17.4435C5.35459 17.9069 4.61521 18.6463 4.15183 19.5557C3.625 20.59 3.625 21.9433 3.625 24.65Z" stroke="white" stroke-width="4" stroke-linecap="round" stroke-linejoin="round"/>
</svg>
