<svg width="16" height="16" viewBox="0 0 16 16" fill="none" xmlns="http://www.w3.org/2000/svg">
<path d="M5.15699 2.93105L9.76799 7.61605C9.86912 7.71827 9.92584 7.85626 9.92584 8.00005C9.92584 8.14384 9.86912 8.28183 9.76799 8.38405L5.15799 13.0691C5.05691 13.1719 5.00028 13.3103 5.00028 13.4546C5.00028 13.5988 5.05691 13.7372 5.15799 13.8401C5.20736 13.8907 5.26638 13.931 5.33156 13.9584C5.39673 13.9859 5.46675 14.0001 5.53749 14.0001C5.60822 14.0001 5.67824 13.9859 5.74342 13.9584C5.8086 13.931 5.86761 13.8907 5.91699 13.8401L10.527 9.15605C10.8299 8.84753 10.9996 8.43243 10.9996 8.00005C10.9996 7.56768 10.8299 7.15257 10.527 6.84405L5.91699 2.16005C5.8676 2.10925 5.80852 2.06887 5.74325 2.04129C5.67798 2.01372 5.60784 1.99951 5.53699 1.99951C5.46613 1.99951 5.396 2.01372 5.33073 2.04129C5.26546 2.06887 5.20638 2.10925 5.15699 2.16005C5.05591 2.26291 4.99928 2.40135 4.99928 2.54555C4.99928 2.68976 5.05591 2.8282 5.15699 2.93105Z" fill="#9A9A9A"/>
</svg>
