<svg width="90" height="90" viewBox="0 0 90 90" fill="none" xmlns="http://www.w3.org/2000/svg">
<path d="M67.5 30C69.5711 30 71.25 28.3211 71.25 26.25C71.25 24.1789 69.5711 22.5 67.5 22.5C65.4289 22.5 63.75 24.1789 63.75 26.25C63.75 28.3211 65.4289 30 67.5 30Z" stroke="#8A8A8A" stroke-width="2" stroke-linecap="round"/>
<path d="M15.1387 65.625H56.115C56.6638 65.6248 57.202 65.4741 57.6712 65.1893C58.1403 64.9045 58.5222 64.4964 58.7755 64.0096C59.0288 63.5227 59.1437 62.9757 59.1077 62.4281C59.0717 61.8805 58.8861 61.3532 58.5713 60.9037L38.0812 31.635C37.8045 31.2404 37.4369 30.9183 37.0093 30.6959C36.5818 30.4735 36.1069 30.3574 35.625 30.3574C35.1431 30.3574 34.6682 30.4735 34.2407 30.6959C33.8131 30.9183 33.4454 31.2404 33.1687 31.635L12.675 60.9037C12.3599 61.3535 12.1744 61.8811 12.1385 62.429C12.1026 62.977 12.2178 63.5242 12.4716 64.0112C12.7253 64.4982 13.1079 64.9062 13.5775 65.1908C14.0471 65.4753 14.5859 65.6255 15.135 65.625H15.1387Z" stroke="#8A8A8A" stroke-width="2" stroke-linecap="round"/>
<path d="M39.375 65.6249H71.4637C71.9991 65.6246 72.5247 65.4811 72.9859 65.2092C73.4471 64.9373 73.8271 64.5469 74.0865 64.0786C74.346 63.6102 74.4753 63.081 74.4612 62.5458C74.4471 62.0106 74.29 61.4889 74.0063 61.0349L60.6675 39.6974C60.3977 39.2666 60.0228 38.9114 59.5781 38.6652C59.1333 38.419 58.6333 38.2898 58.125 38.2898C57.6167 38.2898 57.1167 38.419 56.6719 38.6652C56.2272 38.9114 55.8523 39.2666 55.5825 39.6974L50.1075 48.4537" stroke="#8A8A8A" stroke-width="2" stroke-linecap="round"/>
</svg>
