<svg width="19" height="19" viewBox="0 0 19 19" fill="none" xmlns="http://www.w3.org/2000/svg">
<path d="M9.49998 17.4167C5.1276 17.4167 1.58331 13.8724 1.58331 9.50001C1.58331 5.12764 5.1276 1.58334 9.49998 1.58334C13.8724 1.58334 17.4166 5.12764 17.4166 9.50001C17.4166 13.8724 13.8724 17.4167 9.49998 17.4167ZM9.49998 15.8333C11.1797 15.8333 12.7906 15.1661 13.9783 13.9784C15.1661 12.7906 15.8333 11.1797 15.8333 9.50001C15.8333 7.82031 15.1661 6.2094 13.9783 5.02167C12.7906 3.83394 11.1797 3.16668 9.49998 3.16668C7.82027 3.16668 6.20937 3.83394 5.02164 5.02167C3.83391 6.2094 3.16665 7.82031 3.16665 9.50001C3.16665 11.1797 3.83391 12.7906 5.02164 13.9784C6.20937 15.1661 7.82027 15.8333 9.49998 15.8333ZM8.70831 11.875H10.2916V13.4583H8.70831V11.875ZM10.2916 10.5727V11.0833H8.70831V9.89584C8.70831 9.68588 8.79172 9.48452 8.94019 9.33605C9.08865 9.18758 9.29002 9.10418 9.49998 9.10418C9.72487 9.10416 9.94514 9.04029 10.1352 8.91998C10.3252 8.79967 10.4771 8.62788 10.5733 8.4246C10.6695 8.22131 10.706 7.99489 10.6785 7.77168C10.6511 7.54846 10.5608 7.33764 10.4182 7.16373C10.2756 6.98982 10.0865 6.85998 9.87303 6.78932C9.65952 6.71866 9.43034 6.71007 9.21215 6.76457C8.99396 6.81907 8.79572 6.9344 8.64052 7.09716C8.48531 7.25991 8.37952 7.46339 8.33544 7.68393L6.78219 7.3728C6.87848 6.89154 7.10084 6.44447 7.42654 6.07731C7.75224 5.71014 8.1696 5.43605 8.63595 5.28305C9.10229 5.13006 9.60091 5.10364 10.0808 5.2065C10.5607 5.30936 11.0047 5.53781 11.3674 5.8685C11.7301 6.19918 11.9984 6.62025 12.145 7.08864C12.2916 7.55704 12.3112 8.05597 12.2018 8.53442C12.0924 9.01287 11.8579 9.4537 11.5223 9.81182C11.1867 10.1699 10.762 10.4325 10.2916 10.5727Z" fill="#787878"/>
</svg>
