<svg width="26" height="26" viewBox="0 0 26 26" fill="none" xmlns="http://www.w3.org/2000/svg">
<g clip-path="url(#clip0_172_198)">
<path fill-rule="evenodd" clip-rule="evenodd" d="M12.9759 2.78572C12.1995 2.7717 11.428 2.91092 10.7055 3.1954C9.98304 3.47988 9.32374 3.90404 8.76537 4.44361C8.207 4.98319 7.76051 5.62757 7.45146 6.33989C7.1424 7.05222 6.97686 7.81849 6.96429 8.59487V16.7143C6.96429 17.2068 6.76862 17.6792 6.42034 18.0275C6.07206 18.3758 5.59969 18.5714 5.10714 18.5714H2.78571C2.0469 18.5714 1.33834 18.2779 0.815917 17.7555C0.293494 17.2331 0 16.5245 0 15.7857L0 12.0714C0 11.3326 0.293494 10.6241 0.815917 10.1016C1.33834 9.57922 2.0469 9.28572 2.78571 9.28572H4.17857V8.56144C4.19552 7.42003 4.43714 6.29313 4.88966 5.24511C5.34217 4.1971 5.9967 3.24848 6.81588 2.45346C7.63505 1.65843 8.60281 1.03256 9.66389 0.611595C10.725 0.190628 11.8586 -0.0171899 13 1.01631e-05C14.1414 -0.0171899 15.275 0.190628 16.3361 0.611595C17.3972 1.03256 18.365 1.65843 19.1841 2.45346C20.0033 3.24848 20.6578 4.1971 21.1103 5.24511C21.5629 6.29313 21.8045 7.42003 21.8214 8.56144V9.28572H23.2143C23.9531 9.28572 24.6617 9.57922 25.1841 10.1016C25.7065 10.6241 26 11.3326 26 12.0714V15.7857C26 16.5245 25.7065 17.2331 25.1841 17.7555C24.6617 18.2779 23.9531 18.5714 23.2143 18.5714H21.8214V19.5C21.8217 20.755 21.3598 21.9661 20.524 22.9023C19.6882 23.8385 18.537 24.4341 17.29 24.5756C17.0478 25.0079 16.6947 25.3679 16.2671 25.6183C15.8394 25.8687 15.3527 26.0004 14.8571 26H12.0714C11.3326 26 10.6241 25.7065 10.1016 25.1841C9.57921 24.6617 9.28571 23.9531 9.28571 23.2143C9.28571 22.4755 9.57921 21.7669 10.1016 21.2445C10.6241 20.7221 11.3326 20.4286 12.0714 20.4286H14.8571C15.8637 20.4286 16.7459 20.9616 17.2343 21.762C17.7462 21.6444 18.203 21.3566 18.5302 20.9458C18.8574 20.5349 19.0356 20.0252 19.0357 19.5V8.59301C19.023 7.81264 18.8557 7.04253 18.5435 6.32721C18.2313 5.61188 17.7805 4.96553 17.217 4.42552C16.6535 3.88551 15.9885 3.46255 15.2605 3.18109C14.5326 2.89963 13.7561 2.76525 12.9759 2.78572Z" fill="#727272"/>
</g>
<defs>
<clipPath id="clip0_172_198">
<rect width="26" height="26" fill="white"/>
</clipPath>
</defs>
</svg>
